<?xml version="1.0" standalone="no"?><!DOCTYPE svg PUBLIC "-//W3C//DTD SVG 1.1//EN" "http://www.w3.org/Graphics/SVG/1.1/DTD/svg11.dtd"><svg t="1528562241160" class="icon" style="" viewBox="0 0 1024 1024" version="1.1" xmlns="http://www.w3.org/2000/svg" p-id="592" xmlns:xlink="http://www.w3.org/1999/xlink" width="200" height="200"><defs><style type="text/css">@font-face { font-family: uc-nexus-iconfont; src: url("chrome-extension://pogijhnlcfmcppgimcaccdkmbedjkmhi/res/font_9qmmi8b8jsxxbt9.woff") format("woff"), url("chrome-extension://pogijhnlcfmcppgimcaccdkmbedjkmhi/res/font_9qmmi8b8jsxxbt9.ttf") format("truetype"); }
</style></defs><path d="M960 121.6H64c-19.2 0-38.4 19.2-38.4 38.4v499.2c0 19.2 19.2 38.4 38.4 38.4h25.6c6.4 12.8 6.4 25.6 19.2 38.4 6.4 6.4 12.8 19.2 19.2 25.6-6.4 0-19.2 6.4-25.6 6.4-19.2 6.4-32 19.2-44.8 38.4-6.4 12.8-12.8 19.2-12.8 32s-6.4 19.2-6.4 32v12.8c0 12.8 12.8 19.2 25.6 19.2h896c12.8 0 25.6-12.8 25.6-19.2v-12.8c0-12.8 0-19.2-6.4-32 0-6.4-6.4-19.2-12.8-25.6-6.4-6.4-12.8-19.2-19.2-25.6l-19.2-19.2c-6.4-6.4-19.2-12.8-32-12.8h-6.4c6.4-6.4 12.8-12.8 19.2-25.6l19.2-38.4h32c19.2 0 38.4-19.2 38.4-38.4V153.6c0-19.2-19.2-32-38.4-32z m-57.6 684.8c6.4 6.4 12.8 6.4 12.8 12.8l12.8 12.8c0 6.4 6.4 12.8 6.4 19.2v12.8H89.6v-12.8c0-6.4 6.4-12.8 6.4-19.2 6.4-12.8 12.8-19.2 25.6-25.6 12.8-6.4 19.2-6.4 32-6.4h153.6c6.4 0 12.8 6.4 19.2 6.4l6.4 6.4 6.4 6.4 6.4 6.4c6.4 6.4 25.6 6.4 32 0 6.4-6.4 12.8-12.8 25.6-19.2 6.4-6.4 19.2-6.4 32-6.4h153.6c6.4 0 12.8 6.4 19.2 6.4l6.4 6.4 6.4 6.4 6.4 6.4c6.4 6.4 25.6 6.4 32 0 6.4-6.4 12.8-12.8 25.6-19.2 6.4-6.4 19.2-6.4 32-6.4h153.6c19.2 0 25.6 0 32 6.4z m-768-153.6v-19.2c0-6.4 0-12.8 6.4-19.2 12.8-38.4 51.2-64 89.6-64 57.6 0 96 44.8 96 96 0 19.2-6.4 38.4-19.2 57.6-12.8 12.8-25.6 32-44.8 38.4-12.8 6.4-25.6 6.4-38.4 6.4-12.8 0-25.6 0-38.4-6.4-19.2-6.4-32-19.2-44.8-38.4-6.4-12.8-6.4-32-6.4-51.2z m192 102.4c6.4-6.4 12.8-12.8 19.2-25.6 12.8-19.2 19.2-38.4 19.2-57.6 0 19.2 12.8 38.4 19.2 57.6 6.4 6.4 12.8 19.2 19.2 25.6-6.4 0-12.8 6.4-19.2 6.4l-12.8 12.8-6.4-6.4c-12.8-6.4-19.2-12.8-38.4-12.8z m89.6-102.4v-19.2c0-6.4 6.4-12.8 6.4-19.2 12.8-38.4 51.2-64 89.6-64 51.2 0 96 44.8 96 96 0 19.2-6.4 38.4-19.2 57.6-12.8 12.8-25.6 25.6-44.8 38.4-12.8 6.4-25.6 6.4-38.4 6.4-12.8 0-25.6 0-38.4-6.4-19.2-6.4-32-19.2-44.8-38.4 0-12.8-6.4-32-6.4-51.2z m192 102.4c6.4-6.4 12.8-12.8 19.2-25.6 12.8-19.2 19.2-38.4 25.6-57.6 0 19.2 12.8 38.4 19.2 57.6 6.4 6.4 12.8 19.2 19.2 25.6-6.4 0-12.8 6.4-19.2 6.4-6.4 6.4-19.2 6.4-25.6 12.8L640 768c-6.4-6.4-12.8-12.8-32-12.8z m89.6-102.4v-19.2c6.4-44.8 51.2-76.8 96-76.8 51.2 0 96 44.8 96 96 0 19.2-6.4 38.4-19.2 57.6-12.8 12.8-25.6 25.6-44.8 38.4-12.8 6.4-25.6 6.4-38.4 6.4-12.8 0-25.6 0-38.4-6.4-19.2-6.4-32-19.2-44.8-38.4 0-19.2-6.4-38.4-6.4-57.6z m224-70.4c-6.4-12.8-12.8-25.6-25.6-32-25.6-25.6-64-44.8-102.4-44.8-57.6 0-108.8 32-134.4 89.6-6.4 6.4-6.4 19.2-6.4 25.6v6.4C640 556.8 582.4 505.6 512 505.6c-57.6 0-108.8 32-134.4 89.6 0 6.4-6.4 19.2-6.4 25.6v6.4c-12.8-70.4-70.4-121.6-140.8-121.6-51.2 0-102.4 32-128 76.8V192h819.2v390.4z" fill="#8a8a8a" p-id="593"></path></svg>